# xmcd
# 
# Track frame offsets:
#     183
#     1793
#     4810
#     6558
#     9593
#     13603
#     16855
#     19895
#     24003
#     27308
#     31558
#     33450
#     35668
#     38793
#     41630
#     44558
#     47135
#     49055
#     51435
#     55240
#     60848
#     63733
#     69613
#     74105
#     76903
#     79415
#     88905
#     96375
#     98165
#     100525
#     110060
#     114688
#     117063
#     119033
#     126643
#     132363
#     135520
#     140675
#     144385
#     149505
#     152795
#     161050
#     167508
#     171250
#     176210
#     181305
#     184103
#     193530
#     199193
#     213798
#     219323
#     224895
#     227985
#     232463
#     237305
#     245508
#     251685
#     259350
#     266118
#     274505
#     279895
#     282320
#     289263
#     300095
#     311063
#     322615
#     327168
#     330933
# 
# Disc length: 4471
# 
# Revision: 1
# Processed by: cddbd v1.5.2PL0 Copyright (c) Steve Scherf et al.
# Submitted via: fre:ac v1.1beta1pre4
# 
DISCID=f4117544
DTITLE=John O'Neill - Die Jazzmethode fuer Klarinette
DYEAR=1993
DGENRE=Jazz
TTITLE0=01 B(H)+E
TTITLE1=02 Blues for Beginners
TTITLE2=03 A la Mode
TTITLE3=04 Progression
TTITLE4=05 Out for the Count
TTITLE5=06 P.M.
TTITLE6=07 Third Attempt
TTITLE7=08 South View
TTITLE8=09 Home Bass
TTITLE9=10 Los Azules
TTITLE10=11 James
TTITLE11=12 Flat 5
TTITLE12=13 Minor Problem
TTITLE13=14 Sylvie's Dance
TTITLE14=15 K.O.
TTITLE15=16 Times Remembered
TTITLE16=17 Interstellar
TTITLE17=18 251
TTITLE18=19 Blue Jean
TTITLE19=20 *** Improvisation ***
TTITLE20=21 Roberto
TTITLE21=22 Romancing
TTITLE22=23 *** Improvisation ***
TTITLE23=24 Bird Waltz
TTITLE24=25 Devil Music
TTITLE25=26 Apologies to Daisy
TTITLE26=27 Oh When the Saints Go Marching In
TTITLE27=28 Breaking Point
TTITLE28=29 Transition
TTITLE29=30 A Song for Sophie
TTITLE30=31 *** Improvisation ***
TTITLE31=32 Like Benny
TTITLE32=33 Tongue-Twister
TTITLE33=34 Lullaby
TTITLE34=35 *** Improvisation ***
TTITLE35=36 Alicante
TTITLE36=37 Exercise in Rhythm
TTITLE37=38 The Loneliest Monk
TTITLE38=39 Round and Round Again
TTITLE39=40 'Trane Refrain
TTITLE40=41 Blue Monk
TTITLE41=42 A Bossa for Betty
TTITLE42=43 Sister Caroline
TTITLE43=44 Triad Exercise
TTITLE44=45 Lucky Rhythm
TTITLE45=46 Summer Hummer
TTITLE46=47 I Will Call You
TTITLE47=48 Country Road
TTITLE48=49 Euphrates
TTITLE49=50 Endless Night
TTITLE50=51 My Little Suede Shoes
TTITLE51=52 Doxy
TTITLE52=53 The Right Time
TTITLE53=54 Happy Man
TTITLE54=55 Tango Cool
TTITLE55=56 Frankicense
TTITLE56=57 Peace
TTITLE57=58 Fall '90
TTITLE58=59 Familiarity
TTITLE59=60 She Moved Through the Fair
TTITLE60=61 Spanish Steps
TTITLE61=62 Persuasion
TTITLE62=63 It's All Yours
TTITLE63=64 Early Bird
TTITLE64=65 Slip 'n' Slide
TTITLE65=66 Five Jive
TTITLE66=67 Straight, No Chaser
TTITLE67=68 Lady Pres
EXTD=YEAR: 1993
EXTT0=
EXTT1=
EXTT2=
EXTT3=
EXTT4=
EXTT5=
EXTT6=
EXTT7=
EXTT8=
EXTT9=
EXTT10=
EXTT11=
EXTT12=
EXTT13=
EXTT14=
EXTT15=
EXTT16=
EXTT17=
EXTT18=
EXTT19=
EXTT20=
EXTT21=
EXTT22=
EXTT23=
EXTT24=
EXTT25=
EXTT26=
EXTT27=
EXTT28=
EXTT29=
EXTT30=
EXTT31=
EXTT32=
EXTT33=
EXTT34=
EXTT35=
EXTT36=
EXTT37=
EXTT38=
EXTT39=
EXTT40=
EXTT41=
EXTT42=
EXTT43=
EXTT44=
EXTT45=
EXTT46=
EXTT47=
EXTT48=
EXTT49=
EXTT50=
EXTT51=
EXTT52=
EXTT53=
EXTT54=
EXTT55=
EXTT56=
EXTT57=
EXTT58=
EXTT59=
EXTT60=
EXTT61=
EXTT62=
EXTT63=
EXTT64=
EXTT65=
EXTT66=
EXTT67=
PLAYORDER=
